<?xml version="1.0" encoding="UTF-8"?><svg id="Capa_1" xmlns="http://www.w3.org/2000/svg" xmlns:xlink="http://www.w3.org/1999/xlink" viewBox="0 0 285 284"><defs><style>.cls-1{fill:url(#Degradado_sin_nombre_5);}.cls-2{clip-path:url(#clippath-6);}.cls-3{clip-path:url(#clippath-7);}.cls-4{clip-path:url(#clippath-4);}.cls-5{fill:url(#Degradado_sin_nombre_11);}.cls-6{fill:url(#Degradado_sin_nombre_14-2);}.cls-7{clip-path:url(#clippath-9);}.cls-8{clip-path:url(#clippath-10);}.cls-9{clip-path:url(#clippath-11);}.cls-10{fill:none;}.cls-11{clip-path:url(#clippath-1);}.cls-12{fill:url(#Degradado_sin_nombre_11-2);}.cls-13{clip-path:url(#clippath-5);}.cls-14{fill:url(#Degradado_sin_nombre_10-2);}.cls-15{clip-path:url(#clippath-8);}.cls-16{fill:url(#Degradado_sin_nombre_9);}.cls-17{clip-path:url(#clippath-3);}.cls-18{fill:url(#Degradado_sin_nombre_13);}.cls-19{clip-path:url(#clippath-12);}.cls-20{fill:url(#Degradado_sin_nombre_7);}.cls-21{fill:url(#Degradado_sin_nombre_10);}.cls-22{fill:url(#Degradado_sin_nombre_14);}.cls-23{fill:url(#Degradado_sin_nombre_8-2);}.cls-24{clip-path:url(#clippath-2);}.cls-25{fill:url(#Degradado_sin_nombre_7-2);}.cls-26{clip-path:url(#clippath-13);}.cls-27{fill:url(#Degradado_sin_nombre_8);}.cls-28{clip-path:url(#clippath);}.cls-29{fill:url(#Degradado_sin_nombre_12);}</style><clipPath id="clippath"><path class="cls-10" d="M171.16,204.23c-.55,2.63-.67,2.9-.67,2.9l63.84,20.33h.77c.46-.54,1.82-2.12,2.98-3.73,1.23-1.7,1.87-2.77,1.87-2.77l-68.11-20.74s-.22,1.82-.67,4.02"/></clipPath><linearGradient id="Degradado_sin_nombre_14" x1="3747.79" y1="2428.72" x2="3751.56" y2="2428.72" gradientTransform="translate(-51708.42 33838.41) scale(13.84 -13.84)" gradientUnits="userSpaceOnUse"><stop offset="0" stop-color="#e62f71"/><stop offset=".11" stop-color="#e62f71"/><stop offset=".71" stop-color="#ea5d52"/><stop offset=".86" stop-color="#ec6a4a"/><stop offset="1" stop-color="#ec6a4a"/></linearGradient><clipPath id="clippath-1"><polygon class="cls-10" points="24.54 92.62 103.72 101.24 103.72 93.45 24.54 82.81 24.54 92.62"/></clipPath><linearGradient id="Degradado_sin_nombre_7" x1="3845.58" y1="2390.37" x2="3849.35" y2="2390.37" gradientTransform="translate(-81020.74 50468.64) scale(21.07 -21.07)" gradientUnits="userSpaceOnUse"><stop offset="0" stop-color="#149ed7"/><stop offset=".44" stop-color="#45afdf"/><stop offset=".8" stop-color="#68bbe5"/><stop offset="1" stop-color="#76c0e8"/></linearGradient><clipPath id="clippath-2"><polygon class="cls-10" points="24.54 148.98 24.54 155.77 103.72 149 103.72 142.95 24.54 148.98"/></clipPath><linearGradient id="Degradado_sin_nombre_8" x1="3845.58" y1="2388.4" x2="3849.35" y2="2388.4" gradientTransform="translate(-81020.74 50484.57) scale(21.07 -21.07)" gradientUnits="userSpaceOnUse"><stop offset="0" stop-color="#149ed7"/><stop offset=".54" stop-color="#078bc8"/><stop offset="1" stop-color="#0080c0"/></linearGradient><clipPath id="clippath-3"><path class="cls-10" d="M33.44,216.08s1.02,1.95,3.3,5.19c1.07,1.53,1.81,2.47,2.1,2.83h.58l67.75-27.7s-.65-1.79-1.27-4.24c-.67-2.69-1.15-5.79-1.15-5.79l-71.32,29.72Z"/></clipPath><linearGradient id="Degradado_sin_nombre_10" x1="3934.25" y1="2620.62" x2="3938.02" y2="2620.62" gradientTransform="translate(-53583.4 35925.34) scale(13.63 -13.63)" gradientUnits="userSpaceOnUse"><stop offset="0" stop-color="#0463a9"/><stop offset="1" stop-color="#0080c0"/></linearGradient><clipPath id="clippath-4"><path class="cls-10" d="M168.55,156.98s.66,3.21,1.02,5.27c.37,2.06,72.57-10.19,72.57-10.19,0,0-.84-4.08-1.22-5.9-.03-.12-.37-.18-1-.18-8.71,0-71.37,11-71.37,11"/></clipPath><linearGradient id="Degradado_sin_nombre_5" x1="3738.13" y1="2435.86" x2="3741.9" y2="2435.86" gradientTransform="translate(-50018.89 32861.07) scale(13.43 -13.43)" gradientUnits="userSpaceOnUse"><stop offset="0" stop-color="#f9b434"/><stop offset=".05" stop-color="#f9b434"/><stop offset=".3" stop-color="#f4983c"/><stop offset=".74" stop-color="#ec6a4a"/><stop offset="1" stop-color="#ec6a4a"/></linearGradient><clipPath id="clippath-5"><path class="cls-10" d="M162.58,83.26c-.25.49-1.17,2.31-2.18,5.06-1.14,3.11-1.67,5.93-1.67,5.93l76.84,20.22s.06-2.03.63-4.36c.2-.81.49-1.65.49-1.65l-73.66-25.2h-.44Z"/></clipPath><linearGradient id="Degradado_sin_nombre_11" x1="3755.44" y1="2431.32" x2="3759.21" y2="2431.32" gradientTransform="translate(-53242.11 34679.38) scale(14.22 -14.22)" gradientUnits="userSpaceOnUse"><stop offset="0" stop-color="#f9b434"/><stop offset=".16" stop-color="#f9b434"/><stop offset=".85" stop-color="#ffd634"/><stop offset="1" stop-color="#ffd634"/></linearGradient><clipPath id="clippath-6"><path class="cls-10" d="M88.52,28.19c-39.71,0-61.35,14.28-63.97,45.1v13.87l81.73,9.96h19.25v-39.29h-21.81v-29.65h-15.2Z"/></clipPath><linearGradient id="Degradado_sin_nombre_7-2" x1="3889.27" y1="2372.41" x2="3893.04" y2="2372.41" gradientTransform="translate(-104437.1 63782.77) scale(26.86 -26.86)" xlink:href="#Degradado_sin_nombre_7"/><clipPath id="clippath-7"><polygon class="cls-10" points="24.54 87.23 24.54 151.84 103.72 146.28 103.72 97.47 103.72 97.13 106.28 97.13 25.02 87.23 24.54 87.23"/></clipPath><linearGradient id="Degradado_sin_nombre_8-2" x1="3826.83" y1="2396.85" x2="3830.6" y2="2396.85" gradientTransform="translate(-73885.99 46407.76) scale(19.31 -19.31)" xlink:href="#Degradado_sin_nombre_8"/><clipPath id="clippath-8"><path class="cls-10" d="M36.73,221.27c12.02,17.1,31.84,27.99,55.34,32.23h2.39c6.62-1.7,44.66-12.4,57.48-37.43-2.88.46-8.87,1.03-12.46,1.03-20.83,0-29.92-10.39-33.57-24.94l-69.17,29.11Z"/></clipPath><linearGradient id="Degradado_sin_nombre_9" x1="3745.26" y1="2222.33" x2="3749.03" y2="2222.33" gradientTransform="translate(-32298.68 -54389.52) rotate(90) scale(14.58 -14.58)" gradientUnits="userSpaceOnUse"><stop offset="0" stop-color="#05488a"/><stop offset=".83" stop-color="#2076b8"/><stop offset="1" stop-color="#2680c2"/></linearGradient><clipPath id="clippath-9"><path class="cls-10" d="M24.54,151.84v34.67c1.09,13.52,5.41,25.13,12.19,34.77l69.17-29.11c-1.63-6.47-2.19-13.79-2.19-21.36v-24.52l-79.18,5.56Z"/></clipPath><linearGradient id="Degradado_sin_nombre_10-2" x1="3966.66" y1="2531.49" x2="3970.43" y2="2531.49" gradientTransform="translate(-75344.7 48285.78) scale(19 -19)" xlink:href="#Degradado_sin_nombre_10"/><clipPath id="clippath-10"><path class="cls-10" d="M204.27,58.03c-22.03,1.6-37.85,13.41-43.87,30.3l75.79,21.79c2.47-9.99,11.39-13.15,24.26-12.99v-39.1h-56.18Z"/></clipPath><linearGradient id="Degradado_sin_nombre_11-2" x1="3820.39" y1="2403.72" x2="3824.16" y2="2403.72" gradientTransform="translate(-69569.68 43967.11) scale(18.26 -18.26)" xlink:href="#Degradado_sin_nombre_11"/><clipPath id="clippath-11"><path class="cls-10" d="M160.36,88.45c-2.95,8.32-3.52,17.84-1.27,27.98,3.6,16.59,7.33,29.61,9.89,42.7h.25l72.28-10.13c-2.61-12.69-5.09-23.57-5.51-26.49-.73-4.98-.63-9.07.19-12.4l-75.38-21.67h-.45Z"/></clipPath><linearGradient id="Degradado_sin_nombre_12" x1="3775.45" y1="2420.92" x2="3779.22" y2="2420.92" gradientTransform="translate(-57564.37 37139.57) scale(15.29 -15.29)" gradientUnits="userSpaceOnUse"><stop offset="0" stop-color="#f8b233"/><stop offset=".05" stop-color="#f8b233"/><stop offset=".21" stop-color="#f5a038"/><stop offset=".74" stop-color="#ec694b"/><stop offset="1" stop-color="#ec694b"/></linearGradient><clipPath id="clippath-12"><path class="cls-10" d="M120.46,253.49l.56,2.31h44.48c28.97-2.68,57.88-11.89,72.57-32.08l-66.91-19.49c-4.33,21.33-20.74,38.39-50.7,49.26"/></clipPath><linearGradient id="Degradado_sin_nombre_13" x1="4077.68" y1="2586.23" x2="4081.45" y2="2586.23" gradientTransform="translate(-64381.07 41143.82) scale(15.82 -15.82)" gradientUnits="userSpaceOnUse"><stop offset="0" stop-color="#be0c6e"/><stop offset=".51" stop-color="#d41f71"/><stop offset=".89" stop-color="#e62f71"/><stop offset="1" stop-color="#e62f71"/></linearGradient><clipPath id="clippath-13"><path class="cls-10" d="M168.99,159.16c2.03,10.3,3.36,20.74,3.36,32.99,0,4.17-.4,8.17-1.2,12.08l66.3,19.32h.75c6.16-8.58,9.78-19.1,9.78-31.95,0-9.44-3.31-27.33-6.47-42.59l-72.52,10.16Z"/></clipPath><linearGradient id="Degradado_sin_nombre_14-2" x1="3791.18" y1="2483.94" x2="3794.95" y2="2483.94" gradientTransform="translate(-54251.27 35849.37) scale(14.36 -14.36)" xlink:href="#Degradado_sin_nombre_14"/></defs><g class="cls-28"><rect class="cls-22" x="170.49" y="200.22" width="69.46" height="27.24"/></g><g class="cls-11"><rect class="cls-20" x="24.54" y="82.81" width="79.18" height="18.43"/></g><g class="cls-24"><rect class="cls-27" x="24.54" y="142.95" width="79.18" height="12.82"/></g><g class="cls-17"><rect class="cls-21" x="31.67" y="165.17" width="77.28" height="80.12" transform="translate(-129.55 120.85) rotate(-48.2)"/></g><g class="cls-4"><rect class="cls-1" x="168.55" y="145.98" width="73.59" height="18.33"/></g><g class="cls-13"><rect class="cls-5" x="158.73" y="83.26" width="77.96" height="31.21"/></g><g class="cls-2"><rect class="cls-25" x="24.54" y="28.19" width="100.99" height="68.94"/></g><g class="cls-3"><rect class="cls-23" x="24.54" y="87.23" width="81.73" height="64.61"/></g><g class="cls-15"><rect class="cls-16" x="35.08" y="158.4" width="118.51" height="128.85" transform="translate(-140.19 163.25) rotate(-52.8)"/></g><g class="cls-7"><rect class="cls-14" x="10.16" y="128.45" width="110.14" height="110.64" transform="translate(-115.25 109.91) rotate(-48.2)"/></g><g class="cls-8"><rect class="cls-12" x="160.4" y="58.03" width="100.06" height="52.09"/></g><g class="cls-9"><rect class="cls-29" x="156.84" y="88.45" width="84.68" height="70.68"/></g><g class="cls-19"><rect class="cls-18" x="138.27" y="166.38" width="82" height="127.27" transform="translate(-91.26 338.94) rotate(-74)"/></g><g class="cls-26"><rect class="cls-6" x="161.96" y="141.45" width="93.06" height="89.66" transform="translate(-34.9 48.69) rotate(-12.3)"/></g></svg>
